<svg width="196" height="150" viewBox="0 0 196 150" fill="none" xmlns="http://www.w3.org/2000/svg">
<path fill-rule="evenodd" clip-rule="evenodd" d="M10.0587 94.2418C10.028 96.9473 11.0949 99.5498 13.0158 101.455L40.8438 129.058C42.6991 130.898 45.201 131.939 47.8141 131.958L171.398 132.847C176.887 132.887 181.382 128.494 181.469 123.006L182.929 30.8083C183.017 25.2537 178.561 20.692 173.006 20.6502L49.1486 19.717C46.5224 19.6972 43.9939 20.7113 42.1092 22.5402L13.5133 50.2901C11.6009 52.1459 10.5084 54.6883 10.4781 57.3529L10.0587 94.2418Z" fill="#FF724C"/>
<path d="M52.9995 39.5642H79.8589C85.1089 39.5642 89.6714 40.3455 93.5464 41.908C97.4214 43.4705 100.406 45.783 102.5 48.8455C104.625 51.908 105.687 55.6892 105.687 60.1892C105.687 64.0955 105.078 67.3611 103.859 69.9861C102.64 72.6111 100.937 74.783 98.7495 76.5017C96.5933 78.1892 94.0777 79.5798 91.2027 80.6736L85.812 83.7205H63.2652L63.1714 71.0173H79.8589C81.9527 71.0173 83.687 70.6423 85.062 69.8923C86.437 69.1423 87.4683 68.0798 88.1558 66.7048C88.8745 65.2986 89.2339 63.6267 89.2339 61.6892C89.2339 59.7205 88.8745 58.033 88.1558 56.6267C87.437 55.2205 86.3745 54.1423 84.9683 53.3923C83.5933 52.6423 81.8902 52.2673 79.8589 52.2673H69.4527V107.814H52.9995V39.5642ZM90.3589 107.814L75.2652 77.6267L92.7027 77.533L107.984 107.111V107.814H90.3589ZM146.328 39.5642V107.814H129.875V39.5642H146.328ZM166.859 39.5642V52.2673H109.812V39.5642H166.859Z" fill="white"/>
</svg>
