<svg width="239" height="239" viewBox="0 0 239 239" fill="none" xmlns="http://www.w3.org/2000/svg">
<path d="M23.312 184.24H196.573V71.6712C190.435 59.4105 173.38 30.3577 149.657 30.3577C119.591 30.3577 132.611 90.5092 108.702 90.5092C84.7924 90.5092 40.0994 85.6909 40.0994 107.273C40.0994 128.854 80.4713 151.349 67.7947 164.026C56.3179 175.498 28.4888 169.346 23.312 184.24Z" fill="#FF724C"/>
<path opacity="0.7" d="M23.312 184.24H196.573V71.6712C190.435 59.4105 173.38 30.3577 149.657 30.3577C119.591 30.3577 132.611 90.5092 108.702 90.5092C84.7924 90.5092 40.0994 85.6909 40.0994 107.273C40.0994 128.854 80.4713 151.349 67.7947 164.026C56.3179 175.498 28.4888 169.346 23.312 184.24Z" fill="white"/>
<path d="M196.573 184.245H23.3121C23.3121 184.245 8.99595 186.731 9.68905 194.603C10.3822 202.476 36.2993 193.748 40.4484 206.228C44.5974 218.709 79.1664 221.481 108.702 211.458C138.238 201.434 148.964 219.402 164.174 219.402C179.384 219.402 179.47 203.418 194.288 206.224C209.106 209.029 215.721 203.389 209.952 197.62L196.573 184.245Z" fill="#FF724C"/>
<path d="M14.9709 184.245H194.283" stroke="#263238" stroke-linecap="round" stroke-linejoin="round"/>
<path d="M203.858 143.003L212.433 151.574" stroke="#263238" stroke-linecap="round" stroke-linejoin="round"/>
<path d="M226.018 165.163L217.485 156.626" stroke="#263238" stroke-linecap="round" stroke-linejoin="round"/>
<path d="M212.433 155.589L203.858 147.018" stroke="#263238" stroke-linecap="round" stroke-linejoin="round"/>
<path d="M226.018 169.174L217.485 160.641" stroke="#263238" stroke-linecap="round" stroke-linejoin="round"/>
<path d="M212.547 47.0589L204.426 44.2148" stroke="#263238" stroke-linecap="round" stroke-linejoin="round"/>
<path d="M226.018 51.7864L216.998 48.6221" stroke="#263238" stroke-linecap="round" stroke-linejoin="round"/>
<path d="M212.581 50.2329L204.426 47.3745" stroke="#263238" stroke-linecap="round" stroke-linejoin="round"/>
<path d="M226.018 54.9461L217.002 51.7817" stroke="#263238" stroke-linecap="round" stroke-linejoin="round"/>
<path d="M213.073 101.857L203.858 96.6182" stroke="#263238" stroke-linecap="round" stroke-linejoin="round"/>
<path d="M226.018 109.209L216.563 103.836" stroke="#263238" stroke-linecap="round" stroke-linejoin="round"/>
<path d="M213.073 105.198L203.858 99.9592" stroke="#263238" stroke-linecap="round" stroke-linejoin="round"/>
<path d="M226.018 112.55L216.534 107.163" stroke="#263238" stroke-linecap="round" stroke-linejoin="round"/>
<path d="M202.935 37.9149V28.1111" stroke="#263238" stroke-linecap="round" stroke-linejoin="round"/>
<path d="M202.935 78.5927V39.6453" stroke="#263238" stroke-linecap="round" stroke-linejoin="round"/>
<path d="M202.935 94.5961V80.4712" stroke="#263238" stroke-linecap="round" stroke-linejoin="round"/>
<path d="M202.935 146.158V97.1917" stroke="#263238" stroke-linecap="round" stroke-linejoin="round"/>
<path d="M202.935 176.114V148.768" stroke="#263238" stroke-linecap="round" stroke-linejoin="round"/>
<path d="M218.484 193.432L202.935 177.883" stroke="#263238" stroke-linecap="round" stroke-linejoin="round"/>
<path d="M230.095 205.043L220.817 195.765" stroke="#263238" stroke-linecap="round" stroke-linejoin="round"/>
<path d="M213.403 157.109V184.24" stroke="#263238" stroke-linecap="round" stroke-linejoin="round"/>
<path d="M213.403 106.388V150.799" stroke="#263238" stroke-linecap="round" stroke-linejoin="round"/>
<path d="M213.403 51.1794V100.815" stroke="#263238" stroke-linecap="round" stroke-linejoin="round"/>
<path d="M213.403 28.1111V46.428" stroke="#263238" stroke-linecap="round" stroke-linejoin="round"/>
<path d="M216.529 160.641V187.868" stroke="#263238" stroke-linecap="round" stroke-linejoin="round"/>
<path d="M216.529 108.463V155.589" stroke="#263238" stroke-linecap="round" stroke-linejoin="round"/>
<path d="M216.529 52.4749V102.502" stroke="#263238" stroke-linecap="round" stroke-linejoin="round"/>
<path d="M216.529 28.1111V47.7234" stroke="#263238" stroke-linecap="round" stroke-linejoin="round"/>
<path d="M227.734 175.292V197.615" stroke="#263238" stroke-linecap="round" stroke-linejoin="round"/>
<path d="M227.734 124.017V173.438" stroke="#263238" stroke-linecap="round" stroke-linejoin="round"/>
<path d="M227.734 59.5586V121.675" stroke="#263238" stroke-linecap="round" stroke-linejoin="round"/>
<path d="M227.734 28.1111V56.9679" stroke="#263238" stroke-linecap="round" stroke-linejoin="round"/>
<path d="M207.624 153.911V177.825" stroke="#263238" stroke-linecap="round" stroke-linejoin="round"/>
<path d="M207.624 105.198V144.06" stroke="#263238" stroke-linecap="round" stroke-linejoin="round"/>
<path d="M207.624 51.1794V96.6181" stroke="#263238" stroke-linecap="round" stroke-linejoin="round"/>
<path d="M207.624 28.1111V42.4559" stroke="#263238" stroke-linecap="round" stroke-linejoin="round"/>
<path d="M229.574 217.246L196.573 184.245V28.1111" stroke="#263238" stroke-linecap="round" stroke-linejoin="round"/>
<path d="M184.389 23.489H33.0155V110.49H184.389V23.489Z" fill="#FF724C"/>
<mask id="mask0_436_80" style="mask-type:luminance" maskUnits="userSpaceOnUse" x="33" y="23" width="152" height="88">
<path d="M184.389 23.489H33.0155V110.49H184.389V23.489Z" fill="white"/>
</mask>
<g mask="url(#mask0_436_80)">
<path opacity="0.6" d="M184.389 23.489H33.0155V110.49H184.389V23.489Z" fill="white"/>
</g>
<path d="M184.389 23.489H33.0155V110.49H184.389V23.489Z" stroke="#263238" stroke-linecap="round" stroke-linejoin="round"/>
<path d="M184.389 23.489H33.0155V32.2986H184.389V23.489Z" fill="#263238" stroke="#263238" stroke-linecap="round" stroke-linejoin="round"/>
<path d="M113.63 25.8169H42.3365V29.9659H113.63V25.8169Z" fill="white" stroke="#263238" stroke-linecap="round" stroke-linejoin="round"/>
<path d="M55.5007 25.8169H42.3365V29.9659H55.5007V25.8169Z" fill="#FF724C"/>
<mask id="mask1_436_80" style="mask-type:luminance" maskUnits="userSpaceOnUse" x="42" y="25" width="14" height="5">
<path d="M55.5007 25.8169H42.3365V29.9659H55.5007V25.8169Z" fill="white"/>
</mask>
<g mask="url(#mask1_436_80)">
<path opacity="0.5" d="M55.5007 25.8169H42.3365V29.9659H55.5007V25.8169Z" fill="white" stroke="#263238" stroke-linecap="round" stroke-linejoin="round"/>
</g>
<path d="M55.5007 25.8169H42.3365V29.9659H55.5007V25.8169Z" stroke="#263238" stroke-linecap="round" stroke-linejoin="round"/>
<path d="M116.818 76.3989H66.442V80.548H116.818V76.3989Z" fill="white" stroke="#263238" stroke-linecap="round" stroke-linejoin="round"/>
<path d="M182.582 84.9597H143.003V89.1088H182.582V84.9597Z" fill="white" stroke="#263238" stroke-linecap="round" stroke-linejoin="round"/>
<path d="M182.582 93.2913H143.003V97.4403H182.582V93.2913Z" fill="white" stroke="#263238" stroke-linecap="round" stroke-linejoin="round"/>
<path d="M182.582 101.623H143.003V105.772H182.582V101.623Z" fill="white" stroke="#263238" stroke-linecap="round" stroke-linejoin="round"/>
<path d="M79.6061 76.3989H66.442V80.548H79.6061V76.3989Z" fill="#FF724C" stroke="#263238" stroke-linecap="round" stroke-linejoin="round"/>
<path opacity="0.7" d="M137.736 84.9597H66.442V105.772H137.736V84.9597Z" fill="white"/>
<path d="M182.433 35.4104H66.442V42.1645H182.433V35.4104Z" fill="white" stroke="#263238" stroke-linecap="round" stroke-linejoin="round"/>
<path opacity="0.5" d="M182.433 45.2715H66.442V71.9821H182.433V45.2715Z" fill="white"/>
<path d="M87.8612 35.4104H66.442V42.1645H87.8612V35.4104Z" fill="#FF724C" stroke="#263238" stroke-linecap="round" stroke-linejoin="round"/>
<path d="M82.3498 47.5229H67.9955V52.0496H82.3498V47.5229Z" fill="#FF724C" stroke="#263238" stroke-linecap="round" stroke-linejoin="round"/>
<path d="M157.358 78.2822H143.003V82.8089H157.358V78.2822Z" fill="#FF724C" stroke="#263238" stroke-linecap="round" stroke-linejoin="round"/>
<path d="M51.3468 66.3704H36.9924V70.897H51.3468V66.3704Z" fill="#FF724C" stroke="#263238" stroke-linecap="round" stroke-linejoin="round"/>
<path d="M158.381 54.2148H67.9955V56.4758H158.381V54.2148Z" fill="white" stroke="#263238" stroke-linecap="round" stroke-linejoin="round"/>
<path d="M47.3603 72.9954H37.1598V75.2563H47.3603V72.9954Z" fill="white" stroke="#263238" stroke-linecap="round" stroke-linejoin="round"/>
<path d="M51.3468 79.4294H36.9924V83.9561H51.3468V79.4294Z" fill="#FF724C" stroke="#263238" stroke-linecap="round" stroke-linejoin="round"/>
<path d="M49.9511 86.0544H37.1598V88.3154H49.9511V86.0544Z" fill="white" stroke="#263238" stroke-linecap="round" stroke-linejoin="round"/>
<path d="M48.3976 90.4185H37.1598V92.6794H48.3976V90.4185Z" fill="white" stroke="#263238" stroke-linecap="round" stroke-linejoin="round"/>
<path d="M45.802 94.7827H37.1598V97.0437H45.802V94.7827Z" fill="white" stroke="#263238" stroke-linecap="round" stroke-linejoin="round"/>
<path d="M49.9511 99.147H37.1598V101.408H49.9511V99.147Z" fill="white" stroke="#263238" stroke-linecap="round" stroke-linejoin="round"/>
<path d="M47.3603 103.506H37.1598V105.767H47.3603V103.506Z" fill="white" stroke="#263238" stroke-linecap="round" stroke-linejoin="round"/>
<path d="M165.641 58.6411H67.9955V60.9021H165.641V58.6411Z" fill="white" stroke="#263238" stroke-linecap="round" stroke-linejoin="round"/>
<path d="M154.58 63.0723H67.9955V65.3332H154.58V63.0723Z" fill="white" stroke="#263238" stroke-linecap="round" stroke-linejoin="round"/>
<path d="M163.223 67.4985H67.9955V69.7595H163.223V67.4985Z" fill="white" stroke="#263238" stroke-linecap="round" stroke-linejoin="round"/>
<path d="M182.433 25.8169H178.284V29.9659H182.433V25.8169Z" fill="#FF724C" stroke="#263238" stroke-linecap="round" stroke-linejoin="round"/>
<path d="M172.2 25.8169H168.051V29.9659H172.2V25.8169Z" fill="#FF724C"/>
<mask id="mask2_436_80" style="mask-type:luminance" maskUnits="userSpaceOnUse" x="168" y="25" width="5" height="5">
<path d="M172.2 25.8169H168.051V29.9659H172.2V25.8169Z" fill="white"/>
</mask>
<g mask="url(#mask2_436_80)">
<path opacity="0.6" d="M172.2 25.8169H168.051V29.9659H172.2V25.8169Z" fill="white"/>
</g>
<path d="M172.2 25.8169H168.051V29.9659H172.2V25.8169Z" stroke="#263238" stroke-linecap="round" stroke-linejoin="round"/>
<path d="M177.314 25.8169H173.165V29.9659H177.314V25.8169Z" fill="#FF724C"/>
<mask id="mask3_436_80" style="mask-type:luminance" maskUnits="userSpaceOnUse" x="173" y="25" width="5" height="5">
<path d="M177.314 25.8169H173.165V29.9659H177.314V25.8169Z" fill="white"/>
</mask>
<g mask="url(#mask3_436_80)">
<path opacity="0.4" d="M177.314 25.8169H173.165V29.9659H177.314V25.8169Z" fill="white"/>
</g>
<path d="M177.314 25.8169H173.165V29.9659H177.314V25.8169Z" stroke="#263238" stroke-linecap="round" stroke-linejoin="round"/>
<path d="M63.8178 35.4104H36.9924V62.2358H63.8178V35.4104Z" fill="white"/>
<path d="M49.5544 39.3491C49.5544 39.3491 44.8939 39.177 45.5009 40.568C46.108 41.959 42.5421 42.2697 43.4025 43.7897C44.2629 45.3098 41.7821 47.3699 43.0344 48.173C44.2868 48.976 43.7084 50.4913 43.1109 51.2895C42.5134 52.0878 44.0669 53.1251 45.2954 53.1107C46.5238 53.0964 44.8174 54.5447 45.2954 54.8937C45.7734 55.2426 46.4665 54.0094 47.3795 54.2675C48.2924 54.5256 50.3622 53.7321 50.9262 53.952C51.4903 54.1719 58.8945 54.6069 58.9614 54.105C59.0283 53.6031 58.2779 53.517 58.4356 53.0247C58.5933 52.5323 59.8075 53.0247 60.056 51.9683C60.3046 50.9119 59.3534 50.4196 59.4968 49.3919C59.6402 48.3642 60.4097 48.8231 60.5818 47.4177C60.7539 46.0124 58.7176 45.5774 58.6698 44.8604C58.622 44.1434 60.6153 44.3824 60.0321 43.0345C59.449 41.6865 57.3219 41.9064 56.8534 41.1225C56.385 40.3386 58.1297 40.4246 57.0016 39.3587C55.8735 38.2927 51.366 37.6187 49.5544 39.3491Z" fill="#263238" stroke="#263238" stroke-linecap="round" stroke-linejoin="round"/>
<path d="M44.5735 50.5486C44.0334 51.6958 45.0515 51.8965 45.9693 52.2072C46.887 52.5179 46.3564 53.8707 46.3564 53.8707" stroke="#7F7F7F" stroke-width="0.75" stroke-linecap="round" stroke-linejoin="round"/>
<path d="M44.0812 48.0581C44.5503 48.6152 44.7805 49.335 44.7217 50.0609" stroke="#7F7F7F" stroke-width="0.75" stroke-linecap="round" stroke-linejoin="round"/>
<path d="M44.3537 44.4541C44.2724 45.5439 43.2017 47.1166 43.6845 47.6041" stroke="#7F7F7F" stroke-width="0.75" stroke-linecap="round" stroke-linejoin="round"/>
<path d="M46.0792 41.8921C46.0792 41.8921 43.6653 42.8481 44.2389 43.8041" stroke="#7F7F7F" stroke-width="0.75" stroke-linecap="round" stroke-linejoin="round"/>
<path d="M46.1605 40.783C46.2848 41.022 46.6385 41.0411 46.6385 41.3805" stroke="#7F7F7F" stroke-width="0.75" stroke-linecap="round" stroke-linejoin="round"/>
<path d="M49.191 39.8796C49.191 39.8796 46.2657 39.8509 46.1366 40.4484" stroke="#7F7F7F" stroke-width="0.75" stroke-linecap="round" stroke-linejoin="round"/>
<path d="M59.4776 47.0879C59.2482 47.738 57.9289 48.9999 58.4451 50.128C58.9614 51.2561 59.339 51.6815 58.3925 51.9539" stroke="#7F7F7F" stroke-width="0.75" stroke-linecap="round" stroke-linejoin="round"/>
<path d="M58.6076 43.3164C58.4116 44.0191 57.2501 43.9235 57.3983 45.1232C57.4987 45.9741 58.6076 46.2752 59.1717 46.6098" stroke="#7F7F7F" stroke-width="0.75" stroke-linecap="round" stroke-linejoin="round"/>
<path d="M55.969 40.7927C55.969 41.6866 55.1182 41.8109 56.2989 42.4801C56.8174 42.7715 57.401 42.9277 57.9958 42.9342" stroke="#7F7F7F" stroke-width="0.75" stroke-linecap="round" stroke-linejoin="round"/>
<path d="M50.0897 39.9801C50.0897 39.9801 55.2139 38.5461 55.8257 40.0996" stroke="#7F7F7F" stroke-width="0.75" stroke-linecap="round" stroke-linejoin="round"/>
<path d="M57.207 51.9827C56.9776 52.6327 57.685 53.5362 57.685 53.5362" stroke="#7F7F7F" stroke-width="0.75" stroke-linecap="round" stroke-linejoin="round"/>
<path d="M56.5187 43.9187C56.6191 44.6931 55.8591 44.9894 56.0407 45.8307C56.2224 46.672 57.6946 46.4903 57.7663 47.1213C57.838 47.7523 56.5952 48.4501 56.882 49.7073C57.0302 50.3335 57.1688 50.7445 57.2453 51.0839" stroke="#7F7F7F" stroke-width="0.75" stroke-linecap="round" stroke-linejoin="round"/>
<path d="M54.6163 42.542C54.7932 43.2877 55.4528 43.345 55.9452 43.4693" stroke="#7F7F7F" stroke-width="0.75" stroke-linecap="round" stroke-linejoin="round"/>
<path d="M54.9222 41.1462C54.8696 41.4027 54.7811 41.6506 54.6593 41.8824" stroke="#7F7F7F" stroke-width="0.75" stroke-linecap="round" stroke-linejoin="round"/>
<path d="M49.4061 40.5917C49.4061 40.5917 54.4251 39.282 54.841 40.52" stroke="#7F7F7F" stroke-width="0.75" stroke-linecap="round" stroke-linejoin="round"/>
<path d="M55.276 49.4158C55.3859 49.8938 55.8926 50.2475 55.8783 50.9024C55.8544 51.7819 55.4815 52.3746 55.8783 53.1729" stroke="#7F7F7F" stroke-width="0.75" stroke-linecap="round" stroke-linejoin="round"/>
<path d="M53.3304 42.762C53.3898 43.1148 53.521 43.4517 53.7159 43.7518C53.9108 44.0519 54.1651 44.3088 54.4633 44.5067C55.209 45.0277 54.9748 46.0554 55.4193 46.7437C55.8638 47.432 55.6774 48.1777 55.3237 48.9186" stroke="#7F7F7F" stroke-width="0.75" stroke-linecap="round" stroke-linejoin="round"/>
<path d="M48.5074 41.1751C48.5074 41.1751 53.0102 40.8453 53.2062 42.1311" stroke="#7F7F7F" stroke-width="0.75" stroke-linecap="round" stroke-linejoin="round"/>
<path d="M47.2504 40.9169C47.2504 40.9169 47.4607 40.2716 48.5601 40.7066" stroke="#7F7F7F" stroke-width="0.75" stroke-linecap="round" stroke-linejoin="round"/>
<path d="M44.3488 56.2368C46.1652 55.7206 48.8086 54.8411 51.9968 54.8411C54.0475 54.8411 55.8639 55.4481 57.4652 55.8305C59.1716 56.2416 61.4565 56.3468 60.4335 62.1975H42.2695C42.2695 62.1975 41.6673 56.9921 44.3488 56.2368Z" fill="#FF724C" stroke="#263238" stroke-linecap="round" stroke-linejoin="round"/>
<path d="M53.6986 53.5743L52.7426 49.7073L50.1136 50.5008L49.3249 53.6364C49.25 53.9379 49.1097 54.2193 48.9139 54.4605C48.7181 54.7017 48.4717 54.8969 48.192 55.0322C47.7965 55.2139 47.4201 55.4349 47.0687 55.6918C47.0687 55.6918 50.1901 59.9508 56.1794 55.6918C55.782 55.4034 55.352 55.1628 54.8984 54.9748C54.6035 54.8503 54.3417 54.659 54.1334 54.4159C53.9252 54.1729 53.7764 53.8848 53.6986 53.5743Z" fill="white" stroke="#263238" stroke-linecap="round" stroke-linejoin="round"/>
<path d="M45.52 43.9762L45.1759 46.2658C45.1419 46.5077 45.1615 46.7541 45.2332 46.9876L45.434 47.6186L45.3145 49.1099C45.3097 49.1879 45.3097 49.2661 45.3145 49.3441C45.3671 50.1089 45.7351 54.1719 47.9435 54.344C49.9033 54.4922 51.8535 52.0687 52.5466 51.108C52.7178 50.8688 52.8426 50.5996 52.9147 50.3145L53.211 49.1482C53.4898 49.1465 53.761 49.0569 53.9859 48.8921C54.2107 48.7273 54.3779 48.4957 54.4634 48.2304C54.7598 47.2744 55.2521 46.6817 54.3009 46.218C53.3497 45.7544 53.0103 47.0689 53.0103 47.0689C52.9145 46.3895 52.7446 45.7227 52.5036 45.0804C52.2742 44.6932 51.4329 44.22 51.1843 43.8424C51.0457 43.5437 50.9337 43.2334 50.8497 42.915C50.8497 42.915 47.9817 43.4695 45.759 43.025L45.52 43.9762Z" fill="white" stroke="#263238" stroke-linecap="round" stroke-linejoin="round"/>
<path d="M46.844 47.9817L46.0601 49.8937C46.0351 49.9558 46.0251 50.0229 46.0309 50.0896C46.0367 50.1563 46.0582 50.2207 46.0936 50.2775C46.129 50.3344 46.1773 50.382 46.2346 50.4167C46.2919 50.4513 46.3566 50.4719 46.4234 50.4769L47.3794 50.539" stroke="#263238" stroke-linecap="round" stroke-linejoin="round"/>
<path d="M49.7789 50.8735C49.1528 51.9347 48.3927 51.71 47.9291 51.4137" stroke="#263238" stroke-linecap="round" stroke-linejoin="round"/>
<path d="M48.0295 47.7524C48.0295 48.0774 48.1538 48.3403 48.302 48.3403C48.4502 48.3403 48.5792 48.0774 48.5792 47.7524C48.5792 47.4273 48.455 47.1597 48.302 47.1597C48.149 47.1597 48.0295 47.4273 48.0295 47.7524Z" fill="#263238"/>
<path d="M45.7351 47.7524C45.7351 48.0774 45.8594 48.3403 46.0076 48.3403C46.1557 48.3403 46.2848 48.0774 46.2848 47.7524C46.2848 47.4273 46.1605 47.1597 46.0076 47.1597C45.8546 47.1597 45.7351 47.4273 45.7351 47.7524Z" fill="#263238"/>
<path d="M47.9291 46.4522C48.2513 46.3501 48.5992 46.3651 48.9114 46.4946C49.2236 46.624 49.4801 46.8596 49.6355 47.1597" stroke="#263238" stroke-linecap="round" stroke-linejoin="round"/>
<path d="M46.5094 46.3661C46.5094 46.3661 45.6586 45.8881 45.2332 46.9827" stroke="#263238" stroke-linecap="round" stroke-linejoin="round"/>
<path d="M45.5917 42.4561C45.5917 42.4561 46.3039 45.109 47.5802 45.4149C48.8564 45.7208 49.7694 45.9216 50.0275 47.0449C50.2856 48.1682 51.7627 48.3689 52.3745 49.1863C52.9863 50.0037 51.8965 53.3353 53.2397 53.8133C53.0588 53.0592 53.0588 52.2731 53.2397 51.5189C53.5456 50.3096 54.3343 49.1289 53.7607 46.9923C53.1871 44.8556 50.6394 42.4561 50.6394 42.4561L48.0725 42.1501L45.5917 42.4561Z" fill="#263238" stroke="#263238" stroke-linecap="round" stroke-linejoin="round"/>
<path d="M46.7437 42.915C47.0257 43.346 47.3961 43.7121 47.8304 43.989C48.2647 44.2659 48.753 44.4473 49.2627 44.5211C51.0218 44.7936 51.0218 46.7629 51.8391 47.3079C52.6565 47.8528 53.6173 47.9818 53.1297 50.5152" stroke="#7F7F7F" stroke-width="0.75" stroke-linecap="round" stroke-linejoin="round"/>
<path d="M170.168 189.107C170.285 189.108 170.398 189.066 170.486 188.989C170.574 188.913 170.631 188.806 170.646 188.691C170.67 188.543 172.869 173.533 174.762 153.295C175.741 142.822 178.227 135.489 180.139 131.187C182.209 126.522 184.073 124.304 184.092 124.28C184.175 124.183 184.216 124.056 184.206 123.928C184.195 123.8 184.135 123.682 184.037 123.599C183.94 123.516 183.813 123.475 183.685 123.485C183.557 123.496 183.439 123.556 183.356 123.654C183.041 124.022 175.708 132.827 173.796 153.204C171.884 173.414 169.709 188.404 169.685 188.552C169.675 188.615 169.678 188.68 169.693 188.742C169.708 188.804 169.736 188.863 169.774 188.914C169.813 188.965 169.861 189.008 169.916 189.041C169.972 189.073 170.033 189.094 170.096 189.102L170.168 189.107Z" fill="#FF724C" stroke="#263238" stroke-linecap="round" stroke-linejoin="round"/>
<path d="M176.023 177.73H175.937C175.859 177.719 175.783 177.692 175.715 177.652C175.647 177.612 175.587 177.558 175.54 177.495C175.492 177.431 175.458 177.359 175.438 177.282C175.419 177.205 175.414 177.125 175.426 177.047C175.426 176.937 177.013 166.22 178.366 151.775C179.733 137.114 185.058 130.743 185.258 130.489C185.366 130.381 185.511 130.316 185.664 130.31C185.817 130.303 185.966 130.355 186.083 130.454C186.2 130.553 186.274 130.692 186.293 130.844C186.311 130.996 186.271 131.149 186.181 131.273C186.128 131.335 180.899 137.65 179.565 151.885C178.213 166.368 176.64 177.113 176.621 177.219C176.599 177.361 176.527 177.491 176.417 177.585C176.307 177.679 176.168 177.731 176.023 177.73Z" fill="#FF724C" stroke="#263238" stroke-linecap="round" stroke-linejoin="round"/>
<path d="M193.748 119.978C193.95 119.952 194.155 120.005 194.32 120.125C194.485 120.245 194.598 120.423 194.637 120.623C195.44 124.682 198.891 144.213 190.813 141.655C184.092 139.514 184.532 134.6 185.196 132.224C185.228 132.114 185.228 131.997 185.196 131.886C185.164 131.776 185.101 131.677 185.015 131.601C184.929 131.525 184.823 131.475 184.71 131.456C184.596 131.438 184.48 131.453 184.374 131.498C181.755 132.578 176.052 134.285 175.421 128.931C174.685 122.75 190.144 120.456 193.748 119.978Z" fill="#FF724C"/>
<path opacity="0.2" d="M186.42 129.199C184.752 129.447 179.341 130.336 179.685 128.721C180.029 127.105 186.941 128.243 187.29 127.602C187.639 126.962 183.92 125.241 184.522 124.256C185.125 123.272 187.978 126.833 188.585 126.445C189.192 126.058 191.176 121.326 192.299 122.397C193.423 123.468 189.623 126.508 189.709 127.578C189.795 128.649 193.423 128.391 193.853 129.557C194.283 130.724 189.623 128.472 189.364 129.165C189.106 129.858 194.03 135.647 192.471 136.512C190.913 137.377 187.854 128.988 186.42 129.199Z" fill="black"/>
<path d="M197.089 95.8773C197.372 95.8404 197.659 95.9128 197.891 96.0798C198.122 96.2467 198.282 96.4956 198.337 96.776C199.45 102.45 204.278 129.758 192.964 126.154C183.571 123.166 184.188 116.293 185.12 112.975C185.162 112.821 185.161 112.658 185.115 112.504C185.07 112.351 184.982 112.213 184.862 112.107C184.742 112.001 184.594 111.93 184.436 111.904C184.278 111.878 184.116 111.896 183.968 111.957C180.302 113.473 172.333 115.853 171.454 108.372C170.44 99.7539 192.051 96.5131 197.089 95.8773Z" fill="#FF724C"/>
<path opacity="0.7" d="M183.824 110.609C181.54 110.829 174.446 110.107 175.421 106.91C176.396 103.712 184.355 108.119 185.646 107.254C186.936 106.389 183.643 101.714 185.717 100.815C187.792 99.9164 188.232 105.117 189.006 105.074C189.78 105.031 193.499 98.382 195.057 99.2185C196.616 100.055 191.233 105.356 190.908 106.91C190.583 108.463 197.041 107.082 197.476 108.554C197.911 110.026 190.65 108.788 190.306 109.835C189.962 110.882 196.96 116.761 195.148 119.266C193.337 121.771 189.231 110.093 183.824 110.609Z" fill="white"/>
<path d="M174.848 176.506C174.717 176.506 174.592 176.456 174.497 176.368C174.401 176.279 174.342 176.158 174.331 176.028C173.667 170.292 173.06 164.456 172.529 158.734C170.67 138.878 163.376 130.121 163.304 130.054C163.252 130.004 163.211 129.943 163.184 129.876C163.156 129.809 163.143 129.736 163.146 129.664C163.148 129.591 163.165 129.52 163.197 129.455C163.228 129.389 163.273 129.331 163.328 129.284C163.383 129.237 163.448 129.202 163.517 129.181C163.587 129.16 163.66 129.154 163.732 129.163C163.804 129.172 163.873 129.196 163.935 129.234C163.997 129.271 164.051 129.321 164.093 129.38C164.399 129.744 171.674 138.462 173.562 158.658C174.092 164.37 174.699 170.178 175.364 175.928C175.371 175.997 175.364 176.067 175.344 176.134C175.324 176.2 175.29 176.262 175.246 176.316C175.201 176.369 175.147 176.413 175.085 176.445C175.023 176.477 174.955 176.496 174.886 176.502L174.848 176.506Z" fill="#FF724C" stroke="#263238" stroke-linecap="round" stroke-linejoin="round"/>
<path d="M149.523 123.324C149.301 123.404 149.117 123.564 149.006 123.773C148.894 123.981 148.864 124.223 148.921 124.452C150.159 129.108 156.535 151.292 163.681 144.461C169.613 138.792 166.64 133.878 164.733 131.737C164.644 131.638 164.585 131.516 164.562 131.385C164.539 131.254 164.553 131.119 164.603 130.995C164.653 130.872 164.736 130.765 164.844 130.686C164.951 130.608 165.078 130.561 165.211 130.551C168.505 130.346 175.335 129.213 173.256 123.295C170.875 116.498 153.524 121.976 149.523 123.324Z" fill="#FF724C"/>
<path opacity="0.5" d="M162.138 132.884C162.291 135.054 162.912 141.651 161.272 140.962C159.633 140.274 160.579 133.271 159.542 132.32C158.505 131.369 156.349 137.334 155.484 135.69C154.619 134.046 157.558 131.441 157.472 130.284C157.386 129.127 152.214 126.273 152.63 125.236C153.046 124.199 157.816 127.741 158.333 126.88C158.849 126.02 159.456 122.038 160.756 122.473C162.056 122.908 160.756 126.531 161.272 127.053C161.789 127.574 167.147 122.038 168.012 124.806C168.849 127.478 161.597 125.279 162.138 132.884Z" fill="white"/>
<path d="M179.47 190.368H171.956C170.548 190.368 169.195 189.827 168.175 188.857C167.154 187.888 166.545 186.564 166.473 185.158L165.703 170.34H185.717L184.953 185.158C184.88 186.564 184.271 187.888 183.251 188.857C182.231 189.827 180.877 190.368 179.47 190.368Z" fill="#263238" stroke="#263238" stroke-linecap="round" stroke-linejoin="round"/>
<path d="M84.563 202.079H90.2321V158.949H84.563V202.079Z" fill="white"/>
<mask id="mask4_436_80" style="mask-type:luminance" maskUnits="userSpaceOnUse" x="84" y="158" width="7" height="45">
<path d="M84.563 202.079H90.2321V158.949H84.563V202.079Z" fill="white"/>
</mask>
<g mask="url(#mask4_436_80)">
<path opacity="0.2" d="M82.326 198.991H86.7953V158.553H82.326V198.991Z" fill="black"/>
</g>
<path d="M84.563 202.079H90.2321V158.949H84.563V202.079Z" stroke="#263238" stroke-linecap="round" stroke-linejoin="round"/>
<path d="M71.5518 197.036H103.248C104.355 197.036 105.416 197.476 106.199 198.259C106.981 199.041 107.421 200.103 107.421 201.209V202.079H67.3979V201.209C67.3979 200.106 67.835 199.047 68.6134 198.265C69.3919 197.483 70.4484 197.041 71.5518 197.036Z" fill="white"/>
<mask id="mask5_436_80" style="mask-type:luminance" maskUnits="userSpaceOnUse" x="67" y="197" width="41" height="6">
<path d="M71.5518 197.036H103.248C104.355 197.036 105.416 197.476 106.199 198.259C106.981 199.041 107.421 200.103 107.421 201.209V202.079H67.3979V201.209C67.3979 200.106 67.835 199.047 68.6134 198.265C69.3919 197.483 70.4484 197.041 71.5518 197.036Z" fill="white"/>
</mask>
<g mask="url(#mask5_436_80)">
<path opacity="0.2" d="M72.7707 198.27H102.024C103.041 198.268 104.018 198.67 104.74 199.386C105.462 200.103 105.871 201.076 105.877 202.094V202.897H68.918V202.094C68.9243 201.076 69.3331 200.103 70.0551 199.386C70.7771 198.67 71.7534 198.268 72.7707 198.27Z" fill="black"/>
</g>
<path d="M71.5518 197.036H103.248C104.355 197.036 105.416 197.476 106.199 198.259C106.981 199.041 107.421 200.103 107.421 201.209V202.079H67.3979V201.209C67.3979 200.106 67.835 199.047 68.6134 198.265C69.3919 197.483 70.4484 197.041 71.5518 197.036Z" stroke="#263238" stroke-linecap="round" stroke-linejoin="round"/>
<path d="M86.1165 202.079H88.6785V198.317C88.6785 197.978 88.5436 197.652 88.3033 197.412C88.0631 197.171 87.7372 197.036 87.3975 197.036C87.0577 197.036 86.7319 197.171 86.4917 197.412C86.2514 197.652 86.1165 197.978 86.1165 198.317V202.079Z" fill="white" stroke="#263238" stroke-linecap="round" stroke-linejoin="round"/>
<path d="M84.0181 159.432H87.3975H90.777V152.673H84.0181V159.432Z" fill="white" stroke="#263238" stroke-linecap="round" stroke-linejoin="round"/>
<path d="M67.6083 152.563H73.2773V137.387H67.6083V152.563Z" fill="white"/>
<mask id="mask6_436_80" style="mask-type:luminance" maskUnits="userSpaceOnUse" x="67" y="137" width="7" height="16">
<path d="M67.6083 152.563H73.2773V137.387H67.6083V152.563Z" fill="white"/>
</mask>
<g mask="url(#mask6_436_80)">
<path opacity="0.2" d="M65.1754 154.141H69.6447V138.63H65.1754V154.141Z" fill="black"/>
</g>
<path d="M67.6083 152.563H73.2773V137.387H67.6083V152.563Z" stroke="#263238" stroke-linecap="round" stroke-linejoin="round"/>
<path d="M65.29 155.183C79.9693 157.023 94.8209 157.023 109.5 155.183C109.79 155.146 110.069 155.052 110.322 154.906C110.575 154.761 110.797 154.567 110.974 154.335C111.152 154.104 111.282 153.84 111.357 153.558C111.432 153.276 111.451 152.982 111.412 152.692L111.054 150.408C110.958 149.836 110.643 149.324 110.174 148.983C109.706 148.641 109.122 148.497 108.549 148.582C94.4921 150.322 80.2743 150.322 66.2173 148.582C65.6439 148.497 65.0603 148.641 64.5919 148.983C64.1236 149.324 63.8078 149.836 63.7126 150.408L63.3541 152.692C63.3153 152.983 63.3348 153.279 63.4115 153.563C63.4881 153.846 63.6204 154.111 63.8006 154.343C63.9807 154.575 64.2052 154.768 64.4609 154.913C64.7166 155.057 64.9984 155.149 65.29 155.183Z" fill="#263238"/>
<mask id="mask7_436_80" style="mask-type:luminance" maskUnits="userSpaceOnUse" x="63" y="148" width="49" height="9">
<path d="M65.29 155.183C79.9693 157.023 94.8209 157.023 109.5 155.183C109.79 155.146 110.069 155.052 110.322 154.906C110.575 154.761 110.797 154.567 110.974 154.335C111.152 154.104 111.282 153.84 111.357 153.558C111.432 153.276 111.451 152.982 111.412 152.692L111.054 150.408C110.958 149.836 110.643 149.324 110.174 148.983C109.706 148.641 109.122 148.497 108.549 148.582C94.4921 150.322 80.2743 150.322 66.2173 148.582C65.6439 148.497 65.0603 148.641 64.5919 148.983C64.1236 149.324 63.8078 149.836 63.7126 150.408L63.3541 152.692C63.3153 152.983 63.3348 153.279 63.4115 153.563C63.4881 153.846 63.6204 154.111 63.8006 154.343C63.9807 154.575 64.2052 154.768 64.4609 154.913C64.7166 155.057 64.9984 155.149 65.29 155.183Z" fill="white"/>
</mask>
<g mask="url(#mask7_436_80)">
<path opacity="0.2" d="M66.2316 148.582C80.2885 150.322 94.5064 150.322 108.563 148.582C109.137 148.497 109.72 148.641 110.189 148.983C110.657 149.324 110.973 149.836 111.068 150.408C111.183 151.134 111.25 151.574 111.345 152.181C96.7423 152.988 82.0965 152.48 67.5844 150.666C67.0347 150.593 66.5145 150.375 66.0775 150.034C65.6405 149.692 65.3026 149.241 65.0988 148.725C65.4572 148.578 65.848 148.529 66.2316 148.582Z" fill="black"/>
</g>
<path d="M65.29 155.183C79.9693 157.023 94.8209 157.023 109.5 155.183C109.79 155.146 110.069 155.052 110.322 154.906C110.575 154.761 110.797 154.567 110.974 154.335C111.152 154.104 111.282 153.84 111.357 153.558C111.432 153.276 111.451 152.982 111.412 152.692L111.054 150.408C110.958 149.836 110.643 149.324 110.174 148.983C109.706 148.641 109.122 148.497 108.549 148.582C94.4921 150.322 80.2743 150.322 66.2173 148.582C65.6439 148.497 65.0603 148.641 64.5919 148.983C64.1236 149.324 63.8078 149.836 63.7126 150.408L63.3541 152.692C63.3153 152.983 63.3348 153.279 63.4115 153.563C63.4881 153.846 63.6204 154.111 63.8006 154.343C63.9807 154.575 64.2052 154.768 64.4609 154.913C64.7166 155.057 64.9984 155.149 65.29 155.183Z" stroke="#263238" stroke-linecap="round" stroke-linejoin="round"/>
<path d="M65.4239 141.455L78.4685 139.576C81.781 139.098 83.9703 136.173 83.454 133.128C82.1531 125.472 81.7489 117.69 82.2495 109.94C82.3167 108.494 81.8348 107.076 80.9004 105.971C79.966 104.865 78.6483 104.154 77.2113 103.979L66.3655 102.426C63.249 101.981 60.2041 104.338 59.6735 107.775C58.237 116.975 57.8984 126.314 58.6649 135.594C58.9661 139.256 62.14 141.923 65.4239 141.455Z" fill="#263238"/>
<mask id="mask8_436_80" style="mask-type:luminance" maskUnits="userSpaceOnUse" x="58" y="102" width="26" height="40">
<path d="M65.4239 141.455L78.4685 139.576C81.781 139.098 83.9703 136.173 83.454 133.128C82.1531 125.472 81.7489 117.69 82.2495 109.94C82.3167 108.494 81.8348 107.076 80.9004 105.971C79.966 104.865 78.6483 104.154 77.2113 103.979L66.3655 102.426C63.249 101.981 60.2041 104.338 59.6735 107.775C58.237 116.975 57.8984 126.314 58.6649 135.594C58.9661 139.256 62.14 141.923 65.4239 141.455Z" fill="white"/>
</mask>
<g mask="url(#mask8_436_80)">
<path opacity="0.2" d="M65.3426 110.753C65.8732 107.306 68.9132 104.955 72.0346 105.404L81.4799 106.757C82.0551 107.706 82.3254 108.809 82.2542 109.916C81.751 117.677 82.1553 125.47 83.4588 133.137C83.975 136.182 81.7858 139.108 78.4732 139.586L65.4286 141.455H65.2661C64.7399 140.575 64.4242 139.585 64.3436 138.563C63.5719 129.286 63.9072 119.95 65.3426 110.753Z" fill="black"/>
</g>
<path d="M65.4239 141.455L78.4685 139.576C81.781 139.098 83.9703 136.173 83.454 133.128C82.1531 125.472 81.7489 117.69 82.2495 109.94C82.3167 108.494 81.8348 107.076 80.9004 105.971C79.966 104.865 78.6483 104.154 77.2113 103.979L66.3655 102.426C63.249 101.981 60.2041 104.338 59.6735 107.775C58.237 116.975 57.8984 126.314 58.6649 135.594C58.9661 139.256 62.14 141.923 65.4239 141.455Z" stroke="#263238" stroke-linecap="round" stroke-linejoin="round"/>
<path d="M124.318 177.725V184.274L132.674 192.701C132.674 192.701 136.751 194.689 137.095 196.477C137.439 198.265 135.499 199.617 130.661 198.265C125.824 196.912 125.16 195.277 123.338 194.484C121.517 193.69 116.489 193.126 116.709 190.77C116.928 188.413 119.251 184.847 119.251 184.847L118.96 179.647L124.318 177.725Z" fill="white" stroke="#263238" stroke-linecap="round" stroke-linejoin="round"/>
<path d="M118.75 185.65C119.572 186.363 119.902 187.825 119.902 187.825C119.902 187.825 124.137 190.024 124.204 188.208C124.256 186.979 125.47 186.458 126.245 186.248L132.645 192.701C132.645 192.701 136.722 194.689 137.067 196.477C137.411 198.265 135.47 199.618 130.633 198.265C125.795 196.912 125.131 195.277 123.31 194.484C121.489 193.69 116.46 193.126 116.68 190.77C116.852 189.102 118.066 186.836 118.75 185.65Z" fill="#FF724C"/>
<mask id="mask9_436_80" style="mask-type:luminance" maskUnits="userSpaceOnUse" x="116" y="185" width="22" height="14">
<path d="M118.75 185.65C119.572 186.363 119.902 187.825 119.902 187.825C119.902 187.825 124.137 190.024 124.204 188.208C124.256 186.979 125.47 186.458 126.245 186.248L132.645 192.701C132.645 192.701 136.722 194.689 137.067 196.477C137.411 198.265 135.47 199.618 130.633 198.265C125.795 196.912 125.131 195.277 123.31 194.484C121.489 193.69 116.46 193.126 116.68 190.77C116.852 189.102 118.066 186.836 118.75 185.65Z" fill="white"/>
</mask>
<g mask="url(#mask9_436_80)">
<path opacity="0.3" d="M118.75 185.65C119.572 186.363 119.902 187.825 119.902 187.825C119.902 187.825 124.137 190.024 124.204 188.208C124.256 186.979 125.47 186.458 126.245 186.248L132.645 192.701C132.645 192.701 136.722 194.689 137.067 196.477C137.411 198.265 135.47 199.618 130.633 198.265C125.795 196.912 125.131 195.277 123.31 194.484C121.489 193.69 116.46 193.126 116.68 190.77C116.852 189.102 118.066 186.836 118.75 185.65Z" fill="black"/>
</g>
<path d="M118.75 185.65C119.572 186.363 119.902 187.825 119.902 187.825C119.902 187.825 124.137 190.024 124.204 188.208C124.256 186.979 125.47 186.458 126.245 186.248L132.645 192.701C132.645 192.701 136.722 194.689 137.067 196.477C137.411 198.265 135.47 199.618 130.633 198.265C125.795 196.912 125.131 195.277 123.31 194.484C121.489 193.69 116.46 193.126 116.68 190.77C116.852 189.102 118.066 186.836 118.75 185.65Z" stroke="#263238" stroke-linecap="round" stroke-linejoin="round"/>
<path d="M116.694 190.77C116.694 190.631 116.728 190.488 116.756 190.34C117.193 190.796 117.673 191.209 118.19 191.573C120.47 193.203 123.969 192.878 125.284 194.097C126.25 194.923 127.349 195.581 128.534 196.042C129.748 195.086 131.708 196.377 134.069 196.654C135.062 196.794 136.071 196.562 136.904 196.004C136.986 196.154 137.046 196.315 137.081 196.482C137.425 198.27 135.484 199.622 130.647 198.27C125.81 196.917 125.145 195.282 123.324 194.489C121.503 193.695 116.474 193.112 116.694 190.77Z" fill="white" stroke="#263238" stroke-linecap="round" stroke-linejoin="round"/>
<path d="M137.119 197.275C137.119 197.275 136.02 198.824 129.916 196.654" stroke="#263238" stroke-linecap="round" stroke-linejoin="round"/>
<path d="M85.2369 136.88C85.2369 136.88 121.087 134.49 122.703 139.538C124.318 144.585 125.093 160.799 125.188 167.228C125.284 173.657 124.758 181.803 124.758 181.803C122.605 182.452 120.309 182.452 118.157 181.803C118.157 181.803 116.584 172.458 115.442 167.912C114.299 163.366 113.1 157.315 113.788 147.74C113.788 147.74 79.4531 152.912 79.2571 146.909C79.0612 140.905 85.2369 136.88 85.2369 136.88Z" fill="white"/>
<mask id="mask10_436_80" style="mask-type:luminance" maskUnits="userSpaceOnUse" x="79" y="136" width="47" height="47">
<path d="M85.2369 136.88C85.2369 136.88 121.087 134.49 122.703 139.538C124.318 144.585 125.093 160.799 125.188 167.228C125.284 173.657 124.758 181.803 124.758 181.803C122.605 182.452 120.309 182.452 118.157 181.803C118.157 181.803 116.584 172.458 115.442 167.912C114.299 163.366 113.1 157.315 113.788 147.74C113.788 147.74 79.4531 152.912 79.2571 146.909C79.0612 140.905 85.2369 136.88 85.2369 136.88Z" fill="white"/>
</mask>
<g mask="url(#mask10_436_80)">
<path opacity="0.5" d="M85.2369 136.88C85.2369 136.88 121.087 134.49 122.703 139.538C124.318 144.585 125.093 160.799 125.188 167.228C125.284 173.657 124.758 181.803 124.758 181.803C122.605 182.452 120.309 182.452 118.157 181.803C118.157 181.803 116.584 172.458 115.442 167.912C114.299 163.366 113.1 157.315 113.788 147.74C113.788 147.74 79.4531 152.912 79.2571 146.909C79.0612 140.905 85.2369 136.88 85.2369 136.88Z" fill="black"/>
<mask id="mask11_436_80" style="mask-type:luminance" maskUnits="userSpaceOnUse" x="79" y="136" width="47" height="47">
<path d="M85.2369 136.88C85.2369 136.88 121.087 134.49 122.703 139.538C124.318 144.585 125.093 160.799 125.188 167.228C125.284 173.657 124.758 181.803 124.758 181.803C122.605 182.452 120.309 182.452 118.157 181.803C118.157 181.803 116.584 172.458 115.442 167.912C114.299 163.366 113.1 157.315 113.788 147.74C113.788 147.74 79.4531 152.912 79.2571 146.909C79.0612 140.905 85.2369 136.88 85.2369 136.88Z" fill="white"/>
</mask>
<g mask="url(#mask11_436_80)">
<path opacity="0.3" d="M121.24 181.478C119.079 181 117.306 171.578 116.293 161.722C115.279 151.865 118.993 146.827 117.124 145.556C115.255 144.284 99.2949 146.956 90.0504 147.425C84.8545 147.688 81.3938 146.469 79.3528 145.341C79.2747 145.86 79.2427 146.384 79.2572 146.909C79.4531 152.912 113.788 147.74 113.788 147.74C113.1 157.3 114.299 163.371 115.442 167.912C116.584 172.453 118.157 181.803 118.157 181.803C118.706 181.983 119.271 182.113 119.844 182.19C121.13 181.86 121.785 181.597 121.24 181.478Z" fill="black"/>
</g>
</g>
<path d="M85.2369 136.88C85.2369 136.88 121.087 134.49 122.703 139.538C124.318 144.585 125.093 160.799 125.188 167.228C125.284 173.657 124.758 181.803 124.758 181.803C122.605 182.452 120.309 182.452 118.157 181.803C118.157 181.803 116.584 172.458 115.442 167.912C114.299 163.366 113.1 157.315 113.788 147.74C113.788 147.74 79.4531 152.912 79.2571 146.909C79.0612 140.905 85.2369 136.88 85.2369 136.88Z" stroke="#263238" stroke-linecap="round" stroke-linejoin="round"/>
<path d="M117.636 144.466C117.636 144.466 117.268 146.129 114.949 147.74" stroke="#263238" stroke-linecap="round" stroke-linejoin="round"/>
<path d="M125.59 179.752L125.346 182.175C125.346 182.175 121.245 184.374 117.641 182.338L116.885 179.948C116.885 179.948 119.328 181.64 125.59 179.752Z" fill="white"/>
<mask id="mask12_436_80" style="mask-type:luminance" maskUnits="userSpaceOnUse" x="116" y="179" width="10" height="5">
<path d="M125.59 179.752L125.346 182.175C125.346 182.175 121.245 184.374 117.641 182.338L116.885 179.948C116.885 179.948 119.328 181.64 125.59 179.752Z" fill="white"/>
</mask>
<g mask="url(#mask12_436_80)">
<path opacity="0.3" d="M125.59 179.752L125.346 182.175C125.346 182.175 121.245 184.374 117.641 182.338L116.885 179.948C116.885 179.948 119.328 181.64 125.59 179.752Z" fill="black"/>
</g>
<path d="M125.59 179.752L125.346 182.175C125.346 182.175 121.245 184.374 117.641 182.338L116.885 179.948C116.885 179.948 119.328 181.64 125.59 179.752Z" stroke="#263238" stroke-linecap="round" stroke-linejoin="round"/>
<path d="M94.7922 175.741L92.4787 179.652L91.4127 192.232C91.4127 192.232 93.2817 197.663 91.9911 198.953C90.7005 200.244 85.5046 198.475 83.9177 193.695C82.3307 188.915 83.3058 187.481 82.9617 185.507C82.6175 183.533 80.5143 179.484 82.5936 178.337C84.6729 177.19 87.952 176.597 87.952 176.597L89.7875 172.644L94.7922 175.741Z" fill="white" stroke="#263238" stroke-linecap="round" stroke-linejoin="round"/>
<path d="M82.9426 185.512C82.5745 183.562 80.4952 179.489 82.5745 178.342C83.9425 177.666 85.3869 177.157 86.8765 176.827C86.7594 177.371 86.5334 177.887 86.2121 178.342C86.2121 178.342 86.1308 179.809 86.6901 180.459C87.2494 181.11 88.7264 179.647 90.8439 180.459C91.8238 180.837 92.1919 181.315 92.3066 181.721L92.254 182.596L91.4366 192.252C91.4366 192.252 93.3056 197.682 92.015 198.972C90.7244 200.263 85.5286 198.494 83.9416 193.714C82.3546 188.934 83.3059 187.467 82.9426 185.512Z" fill="#FF724C"/>
<mask id="mask13_436_80" style="mask-type:luminance" maskUnits="userSpaceOnUse" x="81" y="176" width="12" height="24">
<path d="M82.9426 185.512C82.5745 183.562 80.4952 179.489 82.5745 178.342C83.9425 177.666 85.3869 177.157 86.8765 176.827C86.7594 177.371 86.5334 177.887 86.2121 178.342C86.2121 178.342 86.1308 179.809 86.6901 180.459C87.2494 181.11 88.7264 179.647 90.8439 180.459C91.8238 180.837 92.1919 181.315 92.3066 181.721L92.254 182.596L91.4366 192.252C91.4366 192.252 93.3056 197.682 92.015 198.972C90.7244 200.263 85.5286 198.494 83.9416 193.714C82.3546 188.934 83.3059 187.467 82.9426 185.512Z" fill="white"/>
</mask>
<g mask="url(#mask13_436_80)">
<path opacity="0.3" d="M82.9426 185.512C82.5745 183.562 80.4952 179.489 82.5745 178.342C83.9425 177.666 85.3869 177.157 86.8765 176.827C86.7594 177.371 86.5334 177.887 86.2121 178.342C86.2121 178.342 86.1308 179.809 86.6901 180.459C87.2494 181.11 88.7264 179.647 90.8439 180.459C91.8238 180.837 92.1919 181.315 92.3066 181.721L92.254 182.596L91.4366 192.252C91.4366 192.252 93.3056 197.682 92.015 198.972C90.7244 200.263 85.5286 198.494 83.9416 193.714C82.3546 188.934 83.3059 187.467 82.9426 185.512Z" fill="black"/>
</g>
<path d="M82.9426 185.512C82.5745 183.562 80.4952 179.489 82.5745 178.342C83.9425 177.666 85.3869 177.157 86.8765 176.827C86.7594 177.371 86.5334 177.887 86.2121 178.342C86.2121 178.342 86.1308 179.809 86.6901 180.459C87.2494 181.11 88.7264 179.647 90.8439 180.459C91.8238 180.837 92.1919 181.315 92.3066 181.721L92.254 182.596L91.4366 192.252C91.4366 192.252 93.3056 197.682 92.015 198.972C90.7244 200.263 85.5286 198.494 83.9416 193.714C82.3546 188.934 83.3059 187.467 82.9426 185.512Z" stroke="#263238" stroke-linecap="round" stroke-linejoin="round"/>
<path d="M83.9177 193.7C82.3307 188.92 83.3058 187.486 82.9617 185.512C82.6175 183.538 80.5143 179.489 82.5936 178.342C82.694 178.284 82.8039 178.237 82.9091 178.184C82.8041 178.993 82.7944 179.811 82.8804 180.622C83.1624 182.902 84.4244 183.49 84.5869 188.442C84.7494 193.394 86.1356 193.815 86.1356 193.815C86.1356 193.815 89.3956 195.201 91.0208 196.912C91.6661 197.591 92.1297 197.648 92.4548 197.481C92.4878 198.008 92.3282 198.53 92.0054 198.948C90.7053 200.239 85.5046 198.466 83.9177 193.7Z" fill="white" stroke="#263238" stroke-linecap="round" stroke-linejoin="round"/>
<path d="M91.2454 198.341C91.2454 198.341 89.0466 198.404 85.7484 194.737" stroke="#263238" stroke-linecap="round" stroke-linejoin="round"/>
<path d="M72.895 138.228C72.895 138.228 67.8138 148.39 74.3051 149.289C80.7963 150.188 100.672 149.031 100.672 149.031C98.1829 153.022 95.9771 157.183 94.0704 161.483C91.4987 167.572 88.908 173.829 88.908 173.829C88.908 173.829 90.0265 176.831 94.5675 177.429C94.5675 177.429 98.2529 171.693 106.312 162.682C114.371 153.672 116.603 144.681 114.887 141.593C113.171 138.505 104.257 136.813 89.8544 136.173L72.895 138.228Z" fill="white"/>
<mask id="mask14_436_80" style="mask-type:luminance" maskUnits="userSpaceOnUse" x="71" y="136" width="45" height="42">
<path d="M72.895 138.228C72.895 138.228 67.8138 148.39 74.3051 149.289C80.7963 150.188 100.672 149.031 100.672 149.031C98.1829 153.022 95.9771 157.183 94.0704 161.483C91.4987 167.572 88.908 173.829 88.908 173.829C88.908 173.829 90.0265 176.831 94.5675 177.429C94.5675 177.429 98.2529 171.693 106.312 162.682C114.371 153.672 116.603 144.681 114.887 141.593C113.171 138.505 104.257 136.813 89.8544 136.173L72.895 138.228Z" fill="white"/>
</mask>
<g mask="url(#mask14_436_80)">
<path opacity="0.5" d="M72.895 138.228C72.895 138.228 67.8138 148.39 74.3051 149.289C80.7963 150.188 100.672 149.031 100.672 149.031C98.1829 153.022 95.9771 157.183 94.0704 161.483C91.4987 167.572 88.908 173.829 88.908 173.829C88.908 173.829 90.0265 176.831 94.5675 177.429C94.5675 177.429 98.2529 171.693 106.312 162.682C114.371 153.672 116.603 144.681 114.887 141.593C113.171 138.505 104.257 136.813 89.8544 136.173L72.895 138.228Z" fill="black"/>
<mask id="mask15_436_80" style="mask-type:luminance" maskUnits="userSpaceOnUse" x="71" y="136" width="45" height="42">
<path d="M72.895 138.228C72.895 138.228 67.8138 148.39 74.3051 149.289C80.7963 150.188 100.672 149.031 100.672 149.031C98.1829 153.022 95.9771 157.183 94.0704 161.483C91.4987 167.572 88.908 173.829 88.908 173.829C88.908 173.829 90.0265 176.831 94.5675 177.429C94.5675 177.429 98.2529 171.693 106.312 162.682C114.371 153.672 116.603 144.681 114.887 141.593C113.171 138.505 104.257 136.813 89.8544 136.173L72.895 138.228Z" fill="white"/>
</mask>
<g mask="url(#mask15_436_80)">
<path opacity="0.3" d="M104.276 146.225C102.263 143.725 83.8269 147.865 77.0297 147.425C73.4447 147.195 71.939 144.82 71.3176 142.645C70.658 145.513 70.7249 148.806 74.2955 149.303C80.7916 150.202 100.662 149.045 100.662 149.045C98.1733 153.036 95.9676 157.197 94.0608 161.497C91.4988 167.572 88.908 173.829 88.908 173.829C89.2868 174.645 89.8676 175.351 90.5953 175.88C88.7885 170.431 106.231 148.658 104.276 146.225Z" fill="black"/>
</g>
</g>
<path d="M72.895 138.228C72.895 138.228 67.8138 148.39 74.3051 149.289C80.7963 150.188 100.672 149.031 100.672 149.031C98.1829 153.022 95.9771 157.183 94.0704 161.483C91.4987 167.572 88.908 173.829 88.908 173.829C88.908 173.829 90.0265 176.831 94.5675 177.429C94.5675 177.429 98.2529 171.693 106.312 162.682C114.371 153.672 116.603 144.681 114.887 141.593C113.171 138.505 104.257 136.813 89.8544 136.173L72.895 138.228Z" stroke="#263238" stroke-linecap="round" stroke-linejoin="round"/>
<path d="M102.225 147.425C102.703 147.019 103.707 146.22 106.326 145.035" stroke="#263238" stroke-linecap="round" stroke-linejoin="round"/>
<path d="M104.682 143.653C104.682 143.653 100.499 147.081 101.336 147.597" stroke="#263238" stroke-linecap="round" stroke-linejoin="round"/>
<path d="M96.1259 176.573L94.5819 178.457C94.5819 178.457 89.9549 178.031 88.0668 174.346L88.7551 171.956C88.7551 171.956 89.8641 174.685 96.1259 176.573Z" fill="white"/>
<mask id="mask16_436_80" style="mask-type:luminance" maskUnits="userSpaceOnUse" x="88" y="171" width="9" height="8">
<path d="M96.1259 176.573L94.5819 178.457C94.5819 178.457 89.9549 178.031 88.0668 174.346L88.7551 171.956C88.7551 171.956 89.8641 174.685 96.1259 176.573Z" fill="white"/>
</mask>
<g mask="url(#mask16_436_80)">
<path opacity="0.3" d="M96.1259 176.573L94.5819 178.457C94.5819 178.457 89.9549 178.031 88.0668 174.346L88.7551 171.956C88.7551 171.956 89.8641 174.685 96.1259 176.573Z" fill="black"/>
</g>
<path d="M96.1259 176.573L94.5819 178.457C94.5819 178.457 89.9549 178.031 88.0668 174.346L88.7551 171.956C88.7551 171.956 89.8641 174.685 96.1259 176.573Z" stroke="#263238" stroke-linecap="round" stroke-linejoin="round"/>
<path d="M101.934 127.956L102.636 132.004L99.3714 133.042L96.8619 128.223C96.8619 128.223 99.773 125.714 101.934 127.956Z" fill="white" stroke="#263238" stroke-linecap="round" stroke-linejoin="round"/>
<path d="M107.631 134.662C108.109 135.14 109.261 135.178 108.487 134.141C107.85 133.309 106.989 132.674 106.006 132.31C104.281 131.541 103.616 131.699 102.048 131.354C100.48 131.01 100.198 131.646 99.6583 131.942C98.3724 132.65 98.0617 132.769 97.7463 133.477C97.4308 134.184 97.0627 135.111 98.0665 135.111C98.9843 135.111 99.0225 133.596 99.9307 133.677C100.839 133.759 101.255 135.111 101.876 135.111H102.115C102.646 135.111 102.674 134.667 102.349 133.974C102.024 133.281 101.671 132.655 101.671 132.655C102.195 132.93 102.615 133.37 102.866 133.907C103.291 134.81 103.368 135.193 104.151 135.193C104.935 135.193 104.878 134.61 104.099 133.329C104.551 133.598 104.925 133.98 105.184 134.437C105.566 135.159 105.767 135.111 106.269 135.111C106.924 135.111 106.881 134.026 105.715 133.314C105.71 133.314 105.968 132.999 107.631 134.662Z" fill="white" stroke="#263238" stroke-linecap="round" stroke-linejoin="round"/>
<path d="M103.076 132.071C103.076 132.071 103.554 132.047 103.822 132.822" stroke="#263238" stroke-linecap="round" stroke-linejoin="round"/>
<path d="M90.6766 96.6134C90.676 96.4848 90.7058 96.358 90.7634 96.2431C90.821 96.1282 90.905 96.0285 91.0083 95.9522C91.1117 95.8758 91.2316 95.8249 91.3584 95.8036C91.4851 95.7822 91.6151 95.7911 91.7378 95.8294C93.3917 96.3457 96.3744 97.7414 96.2406 100.853C96.0589 105.155 96.2406 113.917 96.2406 113.917C96.2406 113.917 97.8897 113.214 99.8256 119.902C101.761 126.589 102.024 128.458 102.024 128.458C102.024 128.458 99.7108 126.789 97.4021 129.27C97.4021 129.27 92.1441 119.357 91.3602 115.083C90.691 111.484 90.6671 100.131 90.6766 96.6134Z" fill="#FF724C" stroke="#263238" stroke-linecap="round" stroke-linejoin="round"/>
<path d="M102.636 129.27C102.636 129.27 99.945 127.526 97.402 130.322L95.8151 128.458C95.8151 128.458 97.7271 126.766 99.8255 126.708C101.924 126.651 102.636 127.406 102.636 127.406V129.27Z" fill="#FF724C"/>
<mask id="mask17_436_80" style="mask-type:luminance" maskUnits="userSpaceOnUse" x="95" y="126" width="8" height="5">
<path d="M102.636 129.27C102.636 129.27 99.945 127.526 97.402 130.322L95.8151 128.458C95.8151 128.458 97.7271 126.766 99.8255 126.708C101.924 126.651 102.636 127.406 102.636 127.406V129.27Z" fill="white"/>
</mask>
<g mask="url(#mask17_436_80)">
<path opacity="0.6" d="M102.636 129.27C102.636 129.27 99.945 127.526 97.402 130.322L95.8151 128.458C95.8151 128.458 97.7271 126.766 99.8255 126.708C101.924 126.651 102.636 127.406 102.636 127.406V129.27Z" fill="white"/>
</g>
<path d="M102.636 129.27C102.636 129.27 99.945 127.526 97.402 130.322L95.8151 128.458C95.8151 128.458 97.7271 126.766 99.8255 126.708C101.924 126.651 102.636 127.406 102.636 127.406V129.27Z" stroke="#263238" stroke-linecap="round" stroke-linejoin="round"/>
<path d="M96.7472 119.825C96.6277 114.228 98.1477 107.345 95.1124 103.611C95.1124 103.611 95.2319 97.7798 90.6813 95.5618C86.1308 93.3439 74.8165 92.2971 71.9007 94.6297C69.4486 96.5943 72.828 116.14 73.3347 130.695C73.4255 133.443 72.503 136.015 72.3787 138.252C72.3787 138.252 73.3108 140.001 77.9761 138.252C82.6414 136.503 96.0541 135.982 96.0541 135.982C96.0541 135.982 96.8619 125.422 96.7472 119.825Z" fill="#FF724C"/>
<mask id="mask18_436_80" style="mask-type:luminance" maskUnits="userSpaceOnUse" x="71" y="93" width="27" height="47">
<path d="M96.7472 119.825C96.6277 114.228 98.1477 107.345 95.1124 103.611C95.1124 103.611 95.2319 97.7798 90.6813 95.5618C86.1308 93.3439 74.8165 92.2971 71.9007 94.6297C69.4486 96.5943 72.828 116.14 73.3347 130.695C73.4255 133.443 72.503 136.015 72.3787 138.252C72.3787 138.252 73.3108 140.001 77.9761 138.252C82.6414 136.503 96.0541 135.982 96.0541 135.982C96.0541 135.982 96.8619 125.422 96.7472 119.825Z" fill="white"/>
</mask>
<g mask="url(#mask18_436_80)">
<path opacity="0.3" d="M96.6276 126.192C95.6191 127.674 93.6449 129.906 90.8916 130.016C86.7235 130.179 90.2989 121.919 89.2951 121.035C88.2913 120.15 84.6824 129.849 77.8566 128.501C71.0307 127.153 76.6281 125.509 76.7859 120.456C76.9436 115.404 78.3394 106.852 75.3088 106.929C74.0804 106.962 72.8806 109.228 71.8864 111.914C72.4552 117.98 73.1387 124.744 73.3204 130.681C73.4112 133.429 72.4886 136.001 72.3644 138.238C72.3644 138.238 73.2965 139.987 77.9617 138.238C82.627 136.488 96.0397 135.967 96.0397 135.967C96.0397 135.967 96.4221 131.096 96.6276 126.192Z" fill="black"/>
</g>
<path d="M96.7472 119.825C96.6277 114.228 98.1477 107.345 95.1124 103.611C95.1124 103.611 95.2319 97.7798 90.6813 95.5618C86.1308 93.3439 74.8165 92.2971 71.9007 94.6297C69.4486 96.5943 72.828 116.14 73.3347 130.695C73.4255 133.443 72.503 136.015 72.3787 138.252C72.3787 138.252 73.3108 140.001 77.9761 138.252C82.6414 136.503 96.0541 135.982 96.0541 135.982C96.0541 135.982 96.8619 125.422 96.7472 119.825Z" stroke="#263238" stroke-linecap="round" stroke-linejoin="round"/>
<path d="M89.864 95.2033C90.6001 96.6373 91.6995 99.1134 91.298 100.074C90.6766 101.475 89.1183 98.3629 88.2627 98.5159C87.4071 98.6688 86.7092 100.643 85.0744 100.428C83.5687 100.237 81.3317 95.7148 77.8757 93.3104C81.8909 93.2435 86.843 94.0131 89.864 95.2033Z" fill="#FF724C"/>
<mask id="mask19_436_80" style="mask-type:luminance" maskUnits="userSpaceOnUse" x="77" y="93" width="15" height="8">
<path d="M89.864 95.2033C90.6001 96.6373 91.6995 99.1134 91.298 100.074C90.6766 101.475 89.1183 98.3629 88.2627 98.5159C87.4071 98.6688 86.7092 100.643 85.0744 100.428C83.5687 100.237 81.3317 95.7148 77.8757 93.3104C81.8909 93.2435 86.843 94.0131 89.864 95.2033Z" fill="white"/>
</mask>
<g mask="url(#mask19_436_80)">
<path opacity="0.7" d="M89.864 95.2033C90.6001 96.6373 91.6995 99.1134 91.298 100.074C90.6766 101.475 89.1183 98.3629 88.2627 98.5159C87.4071 98.6688 86.7092 100.643 85.0744 100.428C83.5687 100.237 81.3317 95.7148 77.8757 93.3104C81.8909 93.2435 86.843 94.0131 89.864 95.2033Z" fill="white"/>
</g>
<path d="M89.864 95.2033C90.6001 96.6373 91.6995 99.1134 91.298 100.074C90.6766 101.475 89.1183 98.3629 88.2627 98.5159C87.4071 98.6688 86.7092 100.643 85.0744 100.428C83.5687 100.237 81.3317 95.7148 77.8757 93.3104C81.8909 93.2435 86.843 94.0131 89.864 95.2033Z" stroke="#263238" stroke-linecap="round" stroke-linejoin="round"/>
<path d="M79.2094 135.336C72.6751 136.015 77.8423 132.784 77.8423 132.784" stroke="#263238" stroke-linecap="round" stroke-linejoin="round"/>
<path d="M89.6537 120.002C87.9233 124.973 84.5152 133.228 80.4187 135.011" stroke="#263238" stroke-linecap="round" stroke-linejoin="round"/>
<path d="M90.8774 116.154C90.8774 116.154 90.6575 116.928 90.2607 118.171" stroke="#263238" stroke-linecap="round" stroke-linejoin="round"/>
<path d="M91.5561 133.042C91.5561 133.042 93.7836 134.074 94.5101 134.442C94.7443 134.562 95.8151 134.968 95.0359 135.336C94.3667 135.652 92.254 134.581 92.254 134.581L90.2129 134.17L91.5561 133.042Z" fill="white"/>
<mask id="mask20_436_80" style="mask-type:luminance" maskUnits="userSpaceOnUse" x="90" y="133" width="6" height="3">
<path d="M91.5561 133.042C91.5561 133.042 93.7836 134.074 94.5101 134.442C94.7443 134.562 95.8151 134.968 95.0359 135.336C94.3667 135.652 92.254 134.581 92.254 134.581L90.2129 134.17L91.5561 133.042Z" fill="white"/>
</mask>
<g mask="url(#mask20_436_80)">
<path opacity="0.2" d="M91.5561 133.042C91.5561 133.042 93.7836 134.074 94.5101 134.442C94.7443 134.562 95.8151 134.968 95.0359 135.336C94.3667 135.652 92.254 134.581 92.254 134.581L90.2129 134.17L91.5561 133.042Z" fill="black"/>
</g>
<path d="M91.5561 133.042C91.5561 133.042 93.7836 134.074 94.5101 134.442C94.7443 134.562 95.8151 134.968 95.0359 135.336C94.3667 135.652 92.254 134.581 92.254 134.581L90.2129 134.17L91.5561 133.042Z" stroke="#263238" stroke-linecap="round" stroke-linejoin="round"/>
<path d="M78.6884 130.494L84.8115 133.936C85.9124 134.895 87.3186 135.432 88.7789 135.451C89.4524 135.466 90.1191 135.314 90.7196 135.009C91.3201 134.703 91.8358 134.254 92.2205 133.701L93.5016 133.873C93.5016 133.873 95.0742 135.331 95.5426 134.691V134.318L94.5102 133.329L93.97 132.946L94.8639 133.113C95.2502 133.503 95.7313 133.784 96.2596 133.931C96.2596 133.931 98.8265 135.365 99.099 134.471C99.099 134.471 99.8781 134.629 100.055 134.241C100.232 133.854 99.7443 133.329 99.7443 133.329C99.9022 133.35 100.063 133.326 100.207 133.258C100.352 133.19 100.473 133.082 100.557 132.946C100.791 132.492 99.6009 132.062 99.2758 131.828C98.9508 131.593 97.2539 130.351 96.3218 130.274C95.3897 130.198 89.0132 131.598 88.0763 131.13C87.1394 130.661 81.1548 125.958 81.1548 125.958L77.9283 129.887L78.6884 130.494Z" fill="white" stroke="#263238" stroke-linecap="round" stroke-linejoin="round"/>
<path d="M98.75 133.893C98.75 133.893 95.5617 131.952 95.0933 131.756C94.6248 131.56 92.8801 131.756 92.8801 131.756" stroke="#263238" stroke-linecap="round" stroke-linejoin="round"/>
<path d="M98.9077 132.784C98.0783 132.243 97.2216 131.745 96.3408 131.292C96.1657 131.169 95.9625 131.091 95.7496 131.066C95.5367 131.041 95.321 131.069 95.1219 131.149" stroke="#263238" stroke-linecap="round" stroke-linejoin="round"/>
<path d="M72.938 95.0455C72.5986 94.6201 72.2497 94.448 71.9007 94.6296C71.9007 94.6296 69.8023 95.3323 68.4782 101.322C67.1542 107.311 66.4563 121.852 67.6226 123.563C68.7889 125.274 78.7457 130.872 78.7457 130.872C78.7457 130.872 79.2237 129.007 82.5697 126.985C82.5697 126.985 76.4274 120.996 75.4953 121.249C75.4953 121.249 76.2171 120.446 74.6397 120.16C74.6397 120.16 75.1177 115.107 75.1177 112.459C75.1177 112.459 76.3605 110.126 75.9733 106.164" fill="#FF724C"/>
<path d="M72.938 95.0455C72.5986 94.6201 72.2497 94.448 71.9007 94.6296C71.9007 94.6296 69.8023 95.3323 68.4782 101.322C67.1542 107.311 66.4563 121.852 67.6226 123.563C68.7889 125.274 78.7457 130.872 78.7457 130.872C78.7457 130.872 79.2237 129.007 82.5697 126.985C82.5697 126.985 76.4274 120.996 75.4953 121.249C75.4953 121.249 76.2171 120.446 74.6397 120.16C74.6397 120.16 75.1177 115.107 75.1177 112.459C75.1177 112.459 76.3605 110.126 75.9733 106.164" stroke="#263238" stroke-linecap="round" stroke-linejoin="round"/>
<path d="M73.9466 106.379C74.4246 108.023 75.0317 110.404 74.7019 111.25C74.1761 112.593 73.4591 108.63 72.1924 107.693" stroke="#263238" stroke-linecap="round" stroke-linejoin="round"/>
<path d="M73.416 104.72C73.416 104.72 73.5212 105.021 73.6741 105.499" stroke="#263238" stroke-linecap="round" stroke-linejoin="round"/>
<path d="M72.9381 121.704C72.4601 121.909 71.7287 122.062 71.4371 123.267" stroke="#263238" stroke-linecap="round" stroke-linejoin="round"/>
<path opacity="0.3" d="M70.4429 120.7C70.4429 120.7 73.0671 120.002 73.3109 121.049L70.4429 120.7Z" fill="black"/>
<path d="M84.0085 127.626C84.0085 127.626 81.6758 128.386 80.2179 131.885L78.0621 131.24C78.0621 131.24 78.4684 128.094 82.6079 125.819L84.0085 127.626Z" fill="#FF724C"/>
<mask id="mask21_436_80" style="mask-type:luminance" maskUnits="userSpaceOnUse" x="78" y="125" width="7" height="7">
<path d="M84.0085 127.626C84.0085 127.626 81.6758 128.386 80.2179 131.885L78.0621 131.24C78.0621 131.24 78.4684 128.094 82.6079 125.819L84.0085 127.626Z" fill="white"/>
</mask>
<g mask="url(#mask21_436_80)">
<path opacity="0.6" d="M84.0085 127.626C84.0085 127.626 81.6758 128.386 80.2179 131.885L78.0621 131.24C78.0621 131.24 78.4684 128.094 82.6079 125.819L84.0085 127.626Z" fill="white"/>
</g>
<path d="M84.0085 127.626C84.0085 127.626 81.6758 128.386 80.2179 131.885L78.0621 131.24C78.0621 131.24 78.4684 128.094 82.6079 125.819L84.0085 127.626Z" stroke="#263238" stroke-linecap="round" stroke-linejoin="round"/>
<path d="M91.7281 70.8349C91.7281 70.8349 98.8981 71.3798 97.7175 73.4017C96.5368 75.4236 101.919 76.5135 100.361 78.6884C98.8026 80.8633 102.215 84.4244 100.16 85.4521C98.1047 86.4798 98.7261 88.8746 99.5052 90.1986C100.284 91.5227 97.7175 92.842 95.8533 92.5886C93.9891 92.3353 96.3313 94.8448 95.5426 95.3132C94.7539 95.7817 93.9078 93.755 92.4691 93.9892C91.0303 94.2234 87.9998 92.6555 87.1059 92.8945C86.212 93.1335 74.8165 92.5122 74.7974 91.733C74.7783 90.9539 75.9446 90.9587 75.7916 90.1795C75.6387 89.4004 73.6884 89.9644 73.4972 88.2675C73.306 86.5706 74.8356 86.0209 74.7974 84.4435C74.7592 82.8661 73.4972 83.411 73.4781 81.2361C73.459 79.0612 76.6473 78.7457 76.8767 77.6607C77.1061 76.5756 73.9848 76.59 75.1129 74.6349C76.241 72.6799 79.4436 73.3826 80.2992 72.2928C81.1548 71.2029 78.4684 71.0022 80.3756 69.5729C82.2829 68.1437 89.2617 67.876 91.7281 70.8349Z" fill="#263238" stroke="#263238" stroke-linecap="round" stroke-linejoin="round"/>
<path d="M88.4587 95.1889C89.0036 95.8533 90.4854 97.9756 87.1442 97.8943C83.803 97.8131 78.7457 93.3151 78.7457 93.3151C78.7457 93.3151 80.7677 92.5312 82.0917 89.4194C82.6701 88.0619 83.9607 83.822 83.9607 83.822L89.0753 89.3429L87.474 93.774C87.474 93.774 88.2388 94.9212 88.4587 95.1889Z" fill="white"/>
<mask id="mask22_436_80" style="mask-type:luminance" maskUnits="userSpaceOnUse" x="78" y="83" width="12" height="15">
<path d="M88.4587 95.1889C89.0036 95.8533 90.4854 97.9756 87.1442 97.8943C83.803 97.8131 78.7457 93.3151 78.7457 93.3151C78.7457 93.3151 80.7677 92.5312 82.0917 89.4194C82.6701 88.0619 83.9607 83.822 83.9607 83.822L89.0753 89.3429L87.474 93.774C87.474 93.774 88.2388 94.9212 88.4587 95.1889Z" fill="white"/>
</mask>
<g mask="url(#mask22_436_80)">
<path d="M88.5303 93.3152C88.5303 93.3152 83.9654 90.9634 83.4492 87.0582C82.933 83.1529 83.8746 83.3154 83.8746 83.3154L85.6767 87.3975L88.0667 89.9596L89.3143 92.015L88.5303 93.3152Z" fill="#263238"/>
</g>
<path d="M88.4587 95.1889C89.0036 95.8533 90.4854 97.9756 87.1442 97.8943C83.803 97.8131 78.7457 93.3151 78.7457 93.3151C78.7457 93.3151 80.7677 92.5312 82.0917 89.4194C82.6701 88.0619 83.9607 83.822 83.9607 83.822L89.0753 89.3429L87.474 93.774C87.474 93.774 88.2388 94.9212 88.4587 95.1889Z" stroke="#263238" stroke-linecap="round" stroke-linejoin="round"/>
<path d="M96.078 76.3557C96.078 76.3557 97.0865 81.0975 96.2692 82.6558C95.4518 84.214 96.1927 86.2312 94.5579 88.1002C92.9232 89.9692 91.733 93.3104 89.7397 92.8419C87.1298 92.2253 84.1901 88.7216 84.0037 87.321C83.9052 86.4283 83.9052 85.5274 84.0037 84.6347C83.7842 84.6506 83.5639 84.6158 83.36 84.5329C83.1561 84.45 82.974 84.3213 82.8278 84.1567C82.2064 83.5735 81.3938 81.2074 82.8278 80.4235C84.0897 79.74 84.6012 81.2026 84.6012 81.2026L88.2292 75.9924L96.078 76.3557Z" fill="white" stroke="#263238" stroke-linecap="round" stroke-linejoin="round"/>
<path d="M93.363 84.9502C93.1287 85.6863 94.2186 86.8909 93.8696 87.4358C93.5207 87.9807 92.6268 87.7083 92.6268 88.2532" stroke="#263238" stroke-linecap="round" stroke-linejoin="round"/>
<path d="M92.1966 89.2665C92.1966 89.2665 90.4471 89.496 89.4194 88.2532" stroke="#263238" stroke-linecap="round" stroke-linejoin="round"/>
<path d="M94.4193 84.3813C94.2998 84.7876 94.3524 85.1652 94.5436 85.2226C94.7348 85.2799 94.9834 84.9931 95.1029 84.5821C95.2224 84.171 95.1698 83.7981 94.9786 83.7456C94.7874 83.693 94.5436 83.975 94.4193 84.3813Z" fill="#263238"/>
<path d="M90.6145 83.6501C90.4902 84.0564 90.5476 84.434 90.734 84.4914C90.9204 84.5487 91.1738 84.2619 91.2933 83.8508C91.4128 83.4398 91.3602 83.0669 91.1738 83.0096C90.9874 82.9522 90.734 83.2247 90.6145 83.6501Z" fill="#263238"/>
<path d="M95.8534 83.043C95.8534 83.043 95.3467 81.9149 94.1039 83.3154" stroke="#263238" stroke-linecap="round" stroke-linejoin="round"/>
<path d="M92.4691 82.6127C92.4691 82.6127 91.145 80.8297 89.7493 82.3067" stroke="#263238" stroke-linecap="round" stroke-linejoin="round"/>
<path d="M93.5159 74.8022C93.5159 74.8022 93.5493 78.1482 94.9785 78.1817C96.4078 78.2152 95.0263 80.653 97.0244 80.9254C99.0224 81.1979 97.0244 76.9007 97.0244 76.9007L95.7147 75.328L93.5159 74.8022Z" fill="#263238" stroke="#263238" stroke-linecap="round" stroke-linejoin="round"/>
<path d="M93.9462 74.8023C93.9462 74.8023 93.1288 77.8328 91.6709 78.1818C90.213 78.5307 89.1662 78.7649 88.8746 80.0508C88.583 81.3366 86.8909 81.566 86.1882 82.4981C85.4856 83.4302 86.714 87.2447 85.1988 87.7896C85.4051 86.927 85.4051 86.0279 85.1988 85.1654C84.8498 83.7839 83.9464 82.4408 84.6013 79.9934C85.2561 77.546 88.1719 74.8023 88.1719 74.8023L91.1069 74.4534L93.9462 74.8023Z" fill="#263238" stroke="#263238" stroke-linecap="round" stroke-linejoin="round"/>
<path d="M83.3966 84.8115C83.3966 84.8115 83.9798 87.9616 83.3966 89.1566C82.8135 90.3516 84.4434 90.8487 83.6595 91.7808C82.8756 92.7129 79.6682 93.3582 78.9656 91.7808C78.2629 90.2034 82.5553 84.4913 83.3966 84.8115Z" fill="#263238" stroke="#263238" stroke-linecap="round" stroke-linejoin="round"/>
<path d="M97.402 88.8171C98.0282 90.6622 96.4173 90.7865 94.9786 91.1068C93.5398 91.427 94.1038 93.578 94.1038 93.578" stroke="#7F7F7F" stroke-width="0.75" stroke-linecap="round" stroke-linejoin="round"/>
<path d="M98.5875 85.084C97.88 85.8297 97.206 86.8765 97.2586 88.0285" stroke="#7F7F7F" stroke-width="0.75" stroke-linecap="round" stroke-linejoin="round"/>
<path d="M98.7931 79.5344C98.7309 81.2122 100.093 83.7982 99.2711 84.4626" stroke="#7F7F7F" stroke-width="0.75" stroke-linecap="round" stroke-linejoin="round"/>
<path d="M96.599 75.3281C96.599 75.3281 100.127 77.1923 99.0798 78.5929" stroke="#7F7F7F" stroke-width="0.75" stroke-linecap="round" stroke-linejoin="round"/>
<path d="M96.6708 73.6121C96.4366 73.9562 95.8821 73.9228 95.8534 74.4486" stroke="#7F7F7F" stroke-width="0.75" stroke-linecap="round" stroke-linejoin="round"/>
<path d="M92.1967 71.7C92.1967 71.7 96.666 72.1779 96.7663 73.1005" stroke="#7F7F7F" stroke-width="0.75" stroke-linecap="round" stroke-linejoin="round"/>
<path d="M75.2277 80.9351C75.4571 81.9771 77.2639 84.1281 76.2745 85.7629C75.285 87.3976 74.6445 87.9808 76.0403 88.5639" stroke="#7F7F7F" stroke-width="0.75" stroke-linecap="round" stroke-linejoin="round"/>
<path d="M77.2066 75.3281C77.3834 76.4323 79.1759 76.4944 78.7457 78.3013C78.4446 79.5775 76.6903 79.85 75.7726 80.2659" stroke="#7F7F7F" stroke-width="0.75" stroke-linecap="round" stroke-linejoin="round"/>
<path d="M81.6806 71.9343C81.5229 73.2918 82.7991 73.636 80.8824 74.4534C80.0368 74.8054 79.1169 74.9418 78.2056 74.8501" stroke="#7F7F7F" stroke-width="0.75" stroke-linecap="round" stroke-linejoin="round"/>
<path d="M90.82 71.7001C90.82 71.7001 83.2437 68.6074 82.0392 70.8827" stroke="#7F7F7F" stroke-width="0.75" stroke-linecap="round" stroke-linejoin="round"/>
<path d="M77.8424 88.8171C78.0814 89.8496 76.8577 91.1068 76.8577 91.1068" stroke="#7F7F7F" stroke-width="0.75" stroke-linecap="round" stroke-linejoin="round"/>
<path d="M80.304 76.6091C80.0124 77.7755 81.1214 78.3586 80.7151 79.5823C80.3088 80.806 78.0717 80.2993 77.8471 81.2553C77.6224 82.2113 79.4101 83.4923 78.7505 85.3565C78.4207 86.3125 78.1339 86.8957 77.9618 87.3976" stroke="#7F7F7F" stroke-width="0.75" stroke-linecap="round" stroke-linejoin="round"/>
<path d="M83.4493 74.8022C83.043 75.9064 82.0153 75.8825 81.2552 75.9925" stroke="#7F7F7F" stroke-width="0.75" stroke-linecap="round" stroke-linejoin="round"/>
<path d="M83.2198 72.656C83.2564 73.0586 83.3481 73.4542 83.4923 73.8319" stroke="#7F7F7F" stroke-width="0.75" stroke-linecap="round" stroke-linejoin="round"/>
<path d="M91.7425 72.7613C91.7425 72.7613 84.3001 69.8933 83.4492 71.7097" stroke="#7F7F7F" stroke-width="0.75" stroke-linecap="round" stroke-linejoin="round"/>
<path d="M81.26 85.2275C81.0163 85.9111 80.175 86.3939 80.0842 87.3977C79.9694 88.7408 80.4379 89.716 79.6779 90.8584" stroke="#7F7F7F" stroke-width="0.75" stroke-linecap="round" stroke-linejoin="round"/>
<path d="M85.3708 75.395C85.2173 75.9244 84.9576 76.4169 84.6075 76.8426C84.2574 77.2683 83.8243 77.6183 83.3345 77.8711C82.106 78.5355 82.2829 80.1463 81.4655 81.1215C80.6481 82.0966 80.825 83.2581 81.2313 84.4675" stroke="#7F7F7F" stroke-width="0.75" stroke-linecap="round" stroke-linejoin="round"/>
<path d="M93.014 73.808C93.014 73.808 86.1881 72.527 85.6671 74.4533" stroke="#7F7F7F" stroke-width="0.75" stroke-linecap="round" stroke-linejoin="round"/>
<path d="M94.9786 73.6358C94.9786 73.6358 94.7731 72.6081 93.014 73.0813" stroke="#7F7F7F" stroke-width="0.75" stroke-linecap="round" stroke-linejoin="round"/>
<path d="M92.6268 75.3281C92.3056 75.8193 91.8839 76.2369 91.3895 76.5533C90.8952 76.8697 90.3394 77.0777 89.7588 77.1636C87.7416 77.4743 87.7416 79.7305 86.8095 80.3519C85.8774 80.9733 84.7733 81.1215 85.3325 84.0182" stroke="#7F7F7F" stroke-width="0.75" stroke-linecap="round" stroke-linejoin="round"/>
<path d="M87.474 93.7742C87.474 93.7742 86.9195 94.7828 88.0858 95.7961L87.474 93.7742Z" fill="white"/>
<path d="M87.474 93.7742C87.474 93.7742 86.9195 94.7828 88.0858 95.7961" stroke="#263238" stroke-linecap="round" stroke-linejoin="round"/>
<path d="M99.3092 135.274L108.19 119.242C108.367 118.924 108.626 118.659 108.939 118.474C109.253 118.289 109.61 118.191 109.973 118.19H110.705V136.622H100.103C99.9448 136.622 99.7897 136.581 99.6526 136.502C99.5156 136.424 99.4013 136.311 99.3212 136.175C99.2411 136.039 99.1979 135.884 99.1958 135.726C99.1937 135.568 99.2328 135.412 99.3092 135.274Z" fill="#263238" stroke="#263238" stroke-linecap="round" stroke-linejoin="round"/>
<path d="M100.734 136.622H118.582C118.893 136.621 119.199 136.538 119.467 136.38C119.735 136.222 119.956 135.995 120.107 135.723L129.261 119.194C129.317 119.091 129.346 118.975 129.344 118.858C129.342 118.74 129.309 118.625 129.249 118.524C129.19 118.423 129.105 118.339 129.003 118.28C128.901 118.222 128.786 118.191 128.668 118.19H110.604C110.24 118.192 109.883 118.29 109.569 118.475C109.255 118.66 108.995 118.924 108.817 119.242L99.9402 135.274C99.8638 135.412 99.8246 135.568 99.8267 135.726C99.8288 135.884 99.8721 136.039 99.9522 136.175C100.032 136.311 100.147 136.424 100.284 136.502C100.421 136.581 100.576 136.622 100.734 136.622Z" fill="white"/>
<mask id="mask23_436_80" style="mask-type:luminance" maskUnits="userSpaceOnUse" x="99" y="118" width="31" height="19">
<path d="M100.734 136.622H118.582C118.893 136.621 119.199 136.538 119.467 136.38C119.735 136.222 119.956 135.995 120.107 135.723L129.261 119.194C129.317 119.091 129.346 118.975 129.344 118.858C129.342 118.74 129.309 118.625 129.249 118.524C129.19 118.423 129.105 118.339 129.003 118.28C128.901 118.222 128.786 118.191 128.668 118.19H110.604C110.24 118.192 109.883 118.29 109.569 118.475C109.255 118.66 108.995 118.924 108.817 119.242L99.9402 135.274C99.8638 135.412 99.8246 135.568 99.8267 135.726C99.8288 135.884 99.8721 136.039 99.9522 136.175C100.032 136.311 100.147 136.424 100.284 136.502C100.421 136.581 100.576 136.622 100.734 136.622Z" fill="white"/>
</mask>
<g mask="url(#mask23_436_80)">
<path opacity="0.2" d="M100.734 136.622H118.582C118.893 136.621 119.199 136.538 119.467 136.38C119.735 136.222 119.956 135.995 120.107 135.723L129.261 119.194C129.317 119.091 129.346 118.975 129.344 118.858C129.342 118.74 129.309 118.625 129.249 118.524C129.19 118.423 129.105 118.339 129.003 118.28C128.901 118.222 128.786 118.191 128.668 118.19H110.604C110.24 118.192 109.883 118.29 109.569 118.475C109.255 118.66 108.995 118.924 108.817 119.242L99.9402 135.274C99.8638 135.412 99.8246 135.568 99.8267 135.726C99.8288 135.884 99.8721 136.039 99.9522 136.175C100.032 136.311 100.147 136.424 100.284 136.502C100.421 136.581 100.576 136.622 100.734 136.622Z" fill="black"/>
</g>
<path d="M100.734 136.622H118.582C118.893 136.621 119.199 136.538 119.467 136.38C119.735 136.222 119.956 135.995 120.107 135.723L129.261 119.194C129.317 119.091 129.346 118.975 129.344 118.858C129.342 118.74 129.309 118.625 129.249 118.524C129.19 118.423 129.105 118.339 129.003 118.28C128.901 118.222 128.786 118.191 128.668 118.19H110.604C110.24 118.192 109.883 118.29 109.569 118.475C109.255 118.66 108.995 118.924 108.817 119.242L99.9402 135.274C99.8638 135.412 99.8246 135.568 99.8267 135.726C99.8288 135.884 99.8721 136.039 99.9522 136.175C100.032 136.311 100.147 136.424 100.284 136.502C100.421 136.581 100.576 136.622 100.734 136.622Z" stroke="#263238" stroke-linecap="round" stroke-linejoin="round"/>
<path d="M85.1987 136.622H98.6401C98.7871 136.622 98.9282 136.564 99.0322 136.46C99.1361 136.356 99.1946 136.215 99.1946 136.068V135.336H83.8986C83.8979 135.506 83.9312 135.675 83.9965 135.832C84.0618 135.99 84.1578 136.132 84.2788 136.252C84.3999 136.372 84.5436 136.466 84.7015 136.53C84.8595 136.593 85.0285 136.625 85.1987 136.622Z" fill="white"/>
<mask id="mask24_436_80" style="mask-type:luminance" maskUnits="userSpaceOnUse" x="83" y="135" width="17" height="2">
<path d="M85.1987 136.622H98.6401C98.7871 136.622 98.9282 136.564 99.0322 136.46C99.1361 136.356 99.1946 136.215 99.1946 136.068V135.336H83.8986C83.8979 135.506 83.9312 135.675 83.9965 135.832C84.0618 135.99 84.1578 136.132 84.2788 136.252C84.3999 136.372 84.5436 136.466 84.7015 136.53C84.8595 136.593 85.0285 136.625 85.1987 136.622Z" fill="white"/>
</mask>
<g mask="url(#mask24_436_80)">
<path opacity="0.4" d="M85.1987 136.622H98.6401C98.7871 136.622 98.9282 136.564 99.0322 136.46C99.1361 136.356 99.1946 136.215 99.1946 136.068V135.336H83.8986C83.8979 135.506 83.9312 135.675 83.9965 135.832C84.0618 135.99 84.1578 136.132 84.2788 136.252C84.3999 136.372 84.5436 136.466 84.7015 136.53C84.8595 136.593 85.0285 136.625 85.1987 136.622Z" fill="black"/>
</g>
<path d="M85.1987 136.622H98.6401C98.7871 136.622 98.9282 136.564 99.0322 136.46C99.1361 136.356 99.1946 136.215 99.1946 136.068V135.336H83.8986C83.8979 135.506 83.9312 135.675 83.9965 135.832C84.0618 135.99 84.1578 136.132 84.2788 136.252C84.3999 136.372 84.5436 136.466 84.7015 136.53C84.8595 136.593 85.0285 136.625 85.1987 136.622Z" stroke="#263238" stroke-linecap="round" stroke-linejoin="round"/>
</svg>
